<svg xmlns="http://www.w3.org/2000/svg" width="212" height="71" viewBox="0 0 212 71">
  <metadata><?xpacket begin="﻿" id="W5M0MpCehiHzreSzNTczkc9d"?>
<x:xmpmeta xmlns:x="adobe:ns:meta/" x:xmptk="Adobe XMP Core 5.6-c138 79.159824, 2016/09/14-01:09:01        ">
   <rdf:RDF xmlns:rdf="http://www.w3.org/1999/02/22-rdf-syntax-ns#">
      <rdf:Description rdf:about=""/>
   </rdf:RDF>
</x:xmpmeta>
                                                                                                    
                                                                                                    
                                                                                                    
                                                                                                    
                                                                                                    
                                                                                                    
                                                                                                    
                                                                                                    
                                                                                                    
                                                                                                    
                                                                                                    
                                                                                                    
                                                                                                    
                                                                                                    
                                                                                                    
                                                                                                    
                                                                                                    
                                                                                                    
                                                                                                    
                                                                                                    
                           
<?xpacket end="w"?></metadata>
<defs>
    <style>
      .cls-1 {
        fill: #fefefe;
      }

      .cls-1, .cls-2 {
        fill-rule: evenodd;
      }

      .cls-2 {
        fill: #2f2f2f;
      }
    </style>
  </defs>
  <path id="STER" class="cls-1" d="M109.979,58.142a12.937,12.937,0,0,1-1.95,6.4c-1.75,2.9-5.35,6.3-12.7,6.3-5.8,0-10.351-2.45-12.8-6.8a15.272,15.272,0,0,1-1.75-5.45c0-.1-0.05-0.2-0.05-0.3a1.023,1.023,0,0,1,.9-1h6.15a0.9,0.9,0,0,1,.8.7v0.05c0,0.05.05,0.1,0.05,0.15a5.827,5.827,0,0,0,.85,2.2c1.05,1.75,3,2.65,5.85,2.65,3.05,0,5-.85,6.05-2.55a6.1,6.1,0,0,0,.8-2.4c0-1.4-.35-3.05-2.95-4.1a12.138,12.138,0,0,0-3.9-.85,20.581,20.581,0,0,1-6.85-1.35c-5.05-2.05-7.8-6.05-7.8-11.3a13.212,13.212,0,0,1,3.75-8.8c2.6-2.65,6.3-4,10.9-4a14.394,14.394,0,0,1,10.45,3.95,15.558,15.558,0,0,1,4.15,9.251v0.1a0.976,0.976,0,0,1-.95,1.05h-6.05a1.072,1.072,0,0,1-.85-0.8v-0.15a11.307,11.307,0,0,0-.9-2.7c-0.7-1.25-2.05-2.9-5.85-2.9-2.45,0-4.25.55-5.4,1.7a5.564,5.564,0,0,0-1.45,3.3c0,1.4.35,3,2.95,4.05a12.908,12.908,0,0,0,3.9.8,19.876,19.876,0,0,1,6.85,1.4C107.229,48.842,109.979,52.892,109.979,58.142Zm31.75-23.551a1.124,1.124,0,0,1-1.2,1h-9.55V69.543a1.124,1.124,0,0,1-.95,1.2h-5.9a1.124,1.124,0,0,1-.95-1.2V35.591h-9.75a1,1,0,0,1-1-1V28.74a0.961,0.961,0,0,1,1-.95h27.1a1.087,1.087,0,0,1,1.2.95v5.85Zm33.751,35.2a0.994,0.994,0,0,1-.951,1H147.178a1,1,0,0,1-1-1v-41a1,1,0,0,1,1-1h26.351a1,1,0,0,1,1,1v5.85a0.961,0.961,0,0,1-1,.95H153.978v9.8h18.551a0.961,0.961,0,0,1,1,.95v5.85a1,1,0,0,1-1,1H153.978v9.751h20.551a0.994,0.994,0,0,1,.951,1v5.85Zm34.25-.6-7.951-14.1-1.1-1.9-0.25-.45c7.25-1.6,11-6.95,11-12.2a11.846,11.846,0,0,0-4.351-9.051c-2.8-2.4-6.75-3.65-11.3-3.65h-14.6a0.994,0.994,0,0,0-1,.95v3.95l0.5,0.9v0.05l6.65,11.7h-7.15v24.4a1,1,0,0,0,1,1h5.85a0.994,0.994,0,0,0,.95-1v-16.6h3.75l1.051,1.9,8.55,15.1,0.1,0.15a0.947,0.947,0,0,0,.8.45h6.7a0.976,0.976,0,0,0,.95-1.05,0.744,0.744,0,0,0-.1-0.45Zm-14.5-25.651-4.451-7.9h5c5.4,0,7.8,2.55,7.8,4.9,0,2-1.8,4.2-5.85,4.75a13.208,13.208,0,0,1-1.45.1Z"/>
  <path id="TIP" class="cls-2" d="M30.019,7.507a1.124,1.124,0,0,1-1.2,1h-9.55V42.459a1.124,1.124,0,0,1-.95,1.2h-5.9a1.124,1.124,0,0,1-.95-1.2V8.507H1.717a1,1,0,0,1-1-1V1.656a0.961,0.961,0,0,1,1-.95h27.1a1.088,1.088,0,0,1,1.2.95v5.85Zm20.6,0.95V35.808h6.55a1.142,1.142,0,0,1,1.25,1v5.85a1.142,1.142,0,0,1-1.25,1h-21.2a1,1,0,0,1-1-1v-5.85a1,1,0,0,1,1-1h6.8V8.457h-6.8a0.961,0.961,0,0,1-1-.95V1.656a1,1,0,0,1,1-1h21.2a1.142,1.142,0,0,1,1.25,1v5.85a1.108,1.108,0,0,1-1.25.95h-6.55Zm40.751-4.15c-2.95-2.35-7-3.6-11.751-3.6H65.967a1,1,0,0,0-1,1v4l7.7,12.551h-7.7v24.4a1,1,0,0,0,1,1h5.85a0.961,0.961,0,0,0,.95-1V26.108h6.951c4.7-.05,8.75-1.25,11.651-3.6a11.657,11.657,0,0,0,4.6-9.1A11.511,11.511,0,0,0,91.369,4.306Zm-15.5,4.2h3.75c5.6,0,8.551,2.45,8.551,4.9,0,2.1-2.2,4.2-6.45,4.75Z"/>
</svg>
